#!OML:ASF E:\Steps\Project 1\Capture day 1\Session 2\Subject.ASF
:FULLY-SPECIFIED
:DEGREES
397
root 12.3101 17.1554 16.8204 -154.386 -1.1497 176.981
lowerback -29.07 -2.23229 -6.90596
upperback -1.94565 -1.39248 -0.457043
thorax 13.2634 -1.33591 2.65137
lowerneck -2.19738 -2.93024 0.982426
upperneck 2.92785 -3.88488 -1.48695
head 1.21715 -1.94841 -0.686337
rclavicle -4.62174e-015 2.20651e-014
rhumerus -33.0142 -11.4825 -84.9301
rradius 39.3591
rwrist -16.9662
rhand -19.6601 -252.211
rfingers 7.12502
rthumb 6.66797 -222.336
lclavicle -4.62174e-015 2.20651e-014
lhumerus -28.8757 3.3942 84.3559
lradius 20.1331
lwrist -6.21503
lhand -20.867 -11.577
lfingers 7.12502
lthumb 5.50278 18.3316
rfemur -23.1829 3.4862 20.309
rtibia 8.30962
rfoot -19.7836 4.88362
rtoes -17.0367
lfemur -22.3006 -7.92789 -22.8834
ltibia 7.63469
lfoot -6.99042 -3.74279
ltoes -16.7281
398
root 12.3137 17.1539 16.8173 -154.371 -1.21721 177.017
lowerback -29.1507 -2.22692 -6.8562
upperback -1.96538 -1.3989 -0.490364
thorax 13.276 -1.33808 2.58344
lowerneck -2.39763 -2.97924 1.26254
upperneck 3.07173 -3.95719 -1.61021
head 1.28901 -1.98414 -0.77871
rclavicle -1.44119e-014 -1.86858e-014
rhumerus -32.9603 -11.6446 -84.9763
rradius 39.1064
rwrist -16.1857
rhand -19.0784 -253.833
rfingers 7.12502
rthumb 7.2295 -223.976
lclavicle -1.44119e-014 -1.86858e-014
lhumerus -28.8247 3.50208 84.1996
lradius 19.8656
lwrist -6.24059
lhand -21.1687 -11.9825
lfingers 7.12502
lthumb 5.21148 17.9334
rfemur -23.1539 3.59769 20.3536
rtibia 8.2792
rfoot -18.7166 4.72123
rtoes -19.1238
lfemur -22.3352 -7.8009 -22.849
ltibia 7.68501
lfoot -6.26576 -3.76932
ltoes -8.59196
399
root 12.3147 17.1519 16.8133 -154.356 -1.22265 177.035
lowerback -29.2368 -2.16853 -6.80503
upperback -2.04231 -1.34516 -0.564136
thorax 13.2179 -1.31414 2.49381
lowerneck -2.37209 -2.97613 1.38881
upperneck 2.97338 -3.9625 -1.53712
head 1.25246 -1.98487 -0.775133
rclavicle -3.57812e-015 -1.43125e-014
rhumerus -33.144 -11.8193 -85.0207
rradius 38.9765
rwrist -15.4193
rhand -18.4384 -255.39
rfingers 7.12502
rthumb 7.84726 -225.556
lclavicle -3.57812e-015 -1.43125e-014
lhumerus -28.8959 3.62867 83.9723
lradius 19.5844
lwrist -6.24793
lhand -21.2818 -12.2747
lfingers 7.12502
lthumb 5.10223 17.6439
rfemur -23.1537 3.61705 20.3763
rtibia 8.29362
rfoot -19.7924 4.7107
rtoes -16.7714
lfemur -22.3261 -7.80921 -22.8319
ltibia 7.63599
lfoot -7.0407 -3.77901
ltoes -18.2714
400
root 12.316 17.1506 16.8113 -154.341 -1.20842 176.978
lowerback -29.3125 -2.10338 -6.88592
upperback -2.1136 -1.23769 -0.658958
thorax 13.1566 -1.2731 2.47327
lowerneck -2.26739 -2.98181 1.37914
upperneck 2.63749 -3.98085 -1.31978
head 1.13235 -1.99231 -0.699164
rclavicle -1.09332e-015 5.56597e-015
rhumerus -33.3959 -11.9795 -85.0391
rradius 38.9677
rwrist -14.8509
rhand -17.8181 -256.937
rfingers 7.12502
rthumb 8.44586 -227.125
lclavicle -1.09332e-015 5.56597e-015
lhumerus -28.9556 3.62759 83.7791
lradius 19.3528
lwrist -6.18737
lhand -21.2094 -12.4161
lfingers 7.12502
lthumb 5.1722 17.5008
rfemur -23.1646 3.58281 20.3252
rtibia 8.29022
rfoot -18.7554 4.63394
rtoes -19.3035
lfemur -22.3107 -7.8651 -22.8905
ltibia 7.58193
lfoot -6.27429 -3.68815
ltoes -8.92304
401
root 12.3186 17.151 16.8106 -154.372 -1.243 176.935
lowerback -29.2849 -2.08353 -6.9341
upperback -2.14479 -1.19795 -0.725839
thorax 13.1026 -1.25727 2.44265
lowerneck -2.36003 -2.98101 1.43561
upperneck 2.46031 -3.98767 -1.25892
head 1.09257 -1.99572 -0.68911
rclavicle -4.96962e-017 -1.35174e-014
rhumerus -33.3909 -12.1877 -85.0685
rradius 38.7118
rwrist -14.4415
rhand -17.3223 -258.797
rfingers 7.12502
rthumb 8.92439 -229.006
lclavicle -4.96962e-017 -1.35174e-014
lhumerus -28.9388 3.67996 83.5762
lradius 19.1922
lwrist -6.28284
lhand -21.0785 -12.2928
lfingers 7.12502
lthumb 5.29853 17.621
rfemur -23.1323 3.60606 20.2895
rtibia 8.30309
rfoot -19.7988 4.56328
rtoes -17.6692
lfemur -22.2902 -7.80781 -22.9426
ltibia 7.63554
lfoot -6.82523 -3.86855
ltoes -18.4084
402
root 12.321 17.1513 16.8085 -154.438 -1.3553 176.916
lowerback -29.2118 -2.11181 -6.94421
upperback -2.16794 -1.23815 -0.739648
thorax 13.0465 -1.27431 2.41996
lowerneck -2.51658 -2.97454 1.54308
upperneck 2.40546 -3.98899 -1.40244
head 1.09768 -2.00104 -0.753843
rclavicle 7.40473e-015 -4.37326e-015
rhumerus -33.2806 -12.4816 -85.0047
rradius 38.2478
rwrist -13.887
rhand -16.8331 -260.917
rfingers 7.12502
rthumb 9.39642 -231.147
lclavicle 7.40473e-015 -4.37326e-015
lhumerus -28.8945 3.85813 83.3549
lradius 19.0563
lwrist -6.52362
lhand -20.9049 -11.9823
lfingers 7.12502
lthumb 5.46613 17.9272
rfemur -23.0159 3.62366 20.3016
rtibia 8.27537
rfoot -18.8133 4.40816
rtoes -19.737
lfemur -22.2458 -7.74498 -22.9584
ltibia 7.7106
lfoot -6.08287 -4.00376
ltoes -9.20158
403
root 12.3211 17.1512 16.8026 -154.533 -1.50428 176.842
lowerback -29.2011 -2.20504 -7.03739
upperback -2.13977 -1.32835 -0.692209
thorax 13.0842 -1.31978 2.48713
lowerneck -2.56703 -2.93904 1.43583
upperneck 2.08884 -3.93265 -1.45168
head 1.00888 -1.97286 -0.746539
rclavicle 1.25234e-014 -1.66979e-014
rhumerus -33.2209 -12.6567 -84.837
rradius 37.8855
rwrist -13.2342
rhand -16.2731 -263.038
rfingers 7.12502
rthumb 9.93665 -233.293
lclavicle 1.25234e-014 -1.66979e-014
lhumerus -28.796 4.32492 83.1562
lradius 18.8308
lwrist -6.87845
lhand -20.867 -11.9113
lfingers 7.12502
lthumb 5.50275 17.9973
rfemur -22.7891 3.63534 20.2415
rtibia 8.13287
rfoot -19.8274 4.21119
rtoes -17.6743
lfemur -22.1113 -7.83302 -23.0254
ltibia 7.66283
lfoot -5.87973 -4.10207
ltoes -7.75002
